<?xml version="1.0" encoding="utf-8"?>
<!-- Generator: Adobe Illustrator 26.1.0, SVG Export Plug-In . SVG Version: 6.00 Build 0)  -->
<svg version="1.1" id="Layer_1" xmlns="http://www.w3.org/2000/svg" xmlns:xlink="http://www.w3.org/1999/xlink" x="0px" y="0px"
	 viewBox="0 0 600 128" style="enable-background:new 0 0 600 128;" xml:space="preserve">
<style type="text/css">
	.st0{fill:#FFFFFF;stroke:#231F20;stroke-width:1.3064;stroke-miterlimit:10;}
	.st1{fill:#FFB098;}
	.st2{fill:#1B4379;}
	.st3{fill:#E30613;}
	.st4{enable-background:new    ;}
	.st5{fill:#36A9FF;}
	.st6{fill:#FFFFFF;}
	.st7{fill:#E3F3FF;}
	.st8{fill:#FFD500;}
	.st9{fill:#FFF7CC;}
	.st10{fill:#FFF4B8;}
	.st11{fill:#FFF6C4;}
	.st12{fill:#FFF4BA;}
	.st13{filter:url(#Adobe_OpacityMaskFilter);}
	.st14{mask:url(#SVGID_1_);fill:#2A69BF;}
	.st15{fill:none;stroke:#1B4379;stroke-width:2.9744;stroke-linecap:round;stroke-linejoin:round;stroke-miterlimit:10;}
	.st16{fill:#D61A25;}
	.st17{fill:#6BBBEB;}
	.st18{fill:#FFF3CC;}
	.st19{fill:#1C4479;}
	.st20{fill:#FFEC8A;}
	.st21{opacity:0.6;fill:#0895FF;}
	.st22{opacity:0.6;fill:#E30613;}
	.st23{opacity:0.48;}
	.st24{clip-path:url(#SVGID_00000100340211377047053900000013123957100364285085_);}
	.st25{filter:url(#Adobe_OpacityMaskFilter_00000018233123905522630560000000959815652709090714_);}
	.st26{mask:url(#SVGID_00000134249317144786017300000011441820879702997692_);fill:#2A69BF;}
	.st27{fill:none;stroke:#1B4379;stroke-width:3.4104;stroke-linecap:round;stroke-linejoin:round;stroke-miterlimit:10;}
	.st28{clip-path:url(#SVGID_00000163757002736788675170000002605233645729941638_);}
	.st29{fill:#094391;}
	.st30{fill:#4AB2FF;}
	.st31{filter:url(#Adobe_OpacityMaskFilter_00000031903528348324065760000016917789498420136874_);}
	.st32{mask:url(#SVGID_00000180368291624854277110000015551939057072859549_);fill:#2A69BF;}
	.st33{clip-path:url(#SVGID_00000163790214290183576120000006264659096923145629_);}
	.st34{filter:url(#Adobe_OpacityMaskFilter_00000089549398271619220810000014921578257597669794_);}
	.st35{mask:url(#SVGID_00000009567189127145902630000010818549950837365904_);fill:#2A69BF;}
	.st36{fill:none;stroke:#1B4379;stroke-width:3.5487;stroke-linecap:round;stroke-linejoin:round;stroke-miterlimit:10;}
	.st37{filter:url(#Adobe_OpacityMaskFilter_00000142872348663961678500000011924698883537717386_);}
	.st38{mask:url(#SVGID_00000057143268000053638310000016652453013117029270_);}
	.st39{fill:none;stroke:#1B4379;stroke-width:2.0954;stroke-linecap:round;stroke-linejoin:round;stroke-miterlimit:10;}
	.st40{fill:none;stroke:#1B4379;stroke-width:1.802;stroke-linecap:round;stroke-linejoin:round;stroke-miterlimit:10;}
	.st41{clip-path:url(#SVGID_00000084501735708550653220000000606800485756403600_);}
	.st42{fill:#FF5E68;}
	.st43{filter:url(#Adobe_OpacityMaskFilter_00000087381424927789490150000003668773554588008591_);}
	.st44{mask:url(#SVGID_00000139272114403984658290000000638710606645130422_);fill:#2A69BF;}
	.st45{clip-path:url(#SVGID_00000063634938489752986630000013909907275303736705_);}
	.st46{fill:#FFE875;}
	.st47{fill:#090606;}
</style>
<g>
	<g>
		<g>
			<g>
				<path class="st47" d="M363.06,77.27c0,11.78-9.08,22.55-28.94,22.55c-9.78,0-19.86-2.69-26.64-7.48l6.29-12.38
					c5.29,3.99,12.67,6.29,19.96,6.29c8.08,0,13.07-3.29,13.07-8.98c0-5.29-3.89-8.58-13.07-8.58h-7.38V58.01l14.37-16.27h-29.74
					V28.77h48.9v10.48L344.1,57.21C356.67,59.21,363.06,66.99,363.06,77.27z"/>
				<path class="st47" d="M370.48,63.7c0-23.05,12.77-36.13,29.94-36.13c17.26,0,29.94,13.07,29.94,36.13s-12.67,36.13-29.94,36.13
					C383.26,99.82,370.48,86.75,370.48,63.7z M414.09,63.7c0-15.87-5.59-22.45-13.67-22.45c-7.98,0-13.57,6.59-13.57,22.45
					c0,15.87,5.59,22.46,13.57,22.46C408.51,86.15,414.09,79.57,414.09,63.7z"/>
				<path class="st47" d="M439.12,63.7c0-23.05,12.77-36.13,29.94-36.13c17.26,0,29.94,13.07,29.94,36.13s-12.67,36.13-29.94,36.13
					C451.9,99.82,439.12,86.75,439.12,63.7z M482.73,63.7c0-15.87-5.59-22.45-13.67-22.45c-7.98,0-13.57,6.59-13.57,22.45
					c0,15.87,5.59,22.46,13.57,22.46C477.15,86.15,482.73,79.57,482.73,63.7z"/>
				<path class="st47" d="M507.76,63.7c0-23.05,12.77-36.13,29.94-36.13c17.26,0,29.94,13.07,29.94,36.13s-12.67,36.13-29.94,36.13
					C520.54,99.82,507.76,86.75,507.76,63.7z M551.37,63.7c0-15.87-5.59-22.45-13.67-22.45c-7.98,0-13.57,6.59-13.57,22.45
					c0,15.87,5.59,22.46,13.57,22.46C545.79,86.15,551.37,79.57,551.37,63.7z"/>
			</g>
			<g>
				<path class="st47" d="M90.19,93.38v6.45H32.36v-5.14l46.75-58.94H33.06V29.3h55.91v5.14L42.33,93.38H90.19z"/>
				<path class="st47" d="M110.79,95.74c-5.68-3.12-10.11-7.41-13.3-12.85c-3.19-5.44-4.79-11.55-4.79-18.34
					c0-6.78,1.59-12.89,4.79-18.33c3.19-5.44,7.62-9.72,13.3-12.85c5.67-3.12,12-4.68,18.99-4.68c6.98,0,13.28,1.54,18.89,4.63
					c5.61,3.09,10.02,7.37,13.25,12.85c3.22,5.48,4.84,11.6,4.84,18.39c0,6.79-1.61,12.91-4.84,18.39
					c-3.22,5.47-7.64,9.76-13.25,12.85c-5.61,3.09-11.91,4.63-18.89,4.63C122.79,100.43,116.46,98.87,110.79,95.74z M144.89,90
					c4.5-2.52,8.03-6.01,10.58-10.48c2.55-4.47,3.83-9.45,3.83-14.96c0-5.51-1.28-10.49-3.83-14.96
					c-2.55-4.47-6.08-7.96-10.58-10.48c-4.5-2.52-9.54-3.78-15.11-3.78c-5.58,0-10.63,1.26-15.16,3.78
					c-4.53,2.52-8.09,6.01-10.68,10.48c-2.59,4.47-3.88,9.45-3.88,14.96c0,5.51,1.29,10.49,3.88,14.96
					c2.58,4.47,6.15,7.96,10.68,10.48c4.53,2.52,9.59,3.78,15.16,3.78C135.35,93.78,140.39,92.52,144.89,90z"/>
				<path class="st47" d="M237.38,29.3v70.52h-6.15L185.9,42.6v57.22h-7.46V29.3h6.15l45.44,57.22V29.3H237.38z"/>
				<path class="st47" d="M300.14,93.38v6.45h-49.87V29.3h48.36v6.45h-40.9v25.09h36.47v6.35h-36.47v26.19H300.14z"/>
			</g>
		</g>
	</g>
</g>
</svg>
